<mxfile host="app.diagrams.net" modified="2023-02-14T12:50:41.519Z" agent="5.0 (Windows NT 10.0; Win64; x64) AppleWebKit/537.36 (KHTML, like Gecko) Chrome/110.0.0.0 Safari/537.36" etag="MbMmWsjfws9K6Q8zv1hu" version="20.8.20" type="github">
  <diagram name="Page-1" id="929967ad-93f9-6ef4-fab6-5d389245f69c">
    <mxGraphModel dx="794" dy="509" grid="1" gridSize="10" guides="1" tooltips="1" connect="1" arrows="1" fold="1" page="1" pageScale="1.5" pageWidth="1169" pageHeight="826" background="none" math="0" shadow="0">
      <root>
        <mxCell id="0" style=";html=1;" />
        <mxCell id="1" style=";html=1;" parent="0" />
        <mxCell id="1672d66443f91eb5-2" value="presentation" style="shape=folder;tabWidth=80;tabHeight=20;tabPosition=left;strokeWidth=1;html=1;whiteSpace=wrap;align=center;fontSize=12;fontStyle=1;verticalAlign=top;" parent="1" vertex="1">
          <mxGeometry x="80" y="40" width="690" height="200" as="geometry" />
        </mxCell>
        <mxCell id="da8Bszw_18QyjZAj_Vt4-1" value="permisos-globales&lt;br&gt;" style="shape=folder;fontStyle=1;spacingTop=10;tabWidth=40;tabHeight=14;tabPosition=left;html=1;" vertex="1" parent="1">
          <mxGeometry x="90" y="80" width="130" height="60" as="geometry" />
        </mxCell>
        <mxCell id="da8Bszw_18QyjZAj_Vt4-2" value="flujos-trabajo" style="shape=folder;fontStyle=1;spacingTop=10;tabWidth=40;tabHeight=14;tabPosition=left;html=1;" vertex="1" parent="1">
          <mxGeometry x="240" y="80" width="130" height="60" as="geometry" />
        </mxCell>
        <mxCell id="da8Bszw_18QyjZAj_Vt4-3" value="tableros" style="shape=folder;fontStyle=1;spacingTop=10;tabWidth=40;tabHeight=14;tabPosition=left;html=1;" vertex="1" parent="1">
          <mxGeometry x="390" y="80" width="130" height="60" as="geometry" />
        </mxCell>
        <mxCell id="da8Bszw_18QyjZAj_Vt4-4" value="plugins" style="shape=folder;fontStyle=1;spacingTop=10;tabWidth=40;tabHeight=14;tabPosition=left;html=1;" vertex="1" parent="1">
          <mxGeometry x="90" y="160" width="670" height="60" as="geometry" />
        </mxCell>
        <mxCell id="da8Bszw_18QyjZAj_Vt4-5" value="Use" style="endArrow=open;endSize=12;dashed=1;html=1;rounded=0;exitX=0.5;exitY=1;exitDx=0;exitDy=0;exitPerimeter=0;entryX=0;entryY=0;entryDx=310;entryDy=14;entryPerimeter=0;" edge="1" parent="1" source="da8Bszw_18QyjZAj_Vt4-1" target="da8Bszw_18QyjZAj_Vt4-4">
          <mxGeometry width="160" relative="1" as="geometry">
            <mxPoint x="190" y="340" as="sourcePoint" />
            <mxPoint x="420" y="380" as="targetPoint" />
          </mxGeometry>
        </mxCell>
        <mxCell id="da8Bszw_18QyjZAj_Vt4-6" value="Use" style="endArrow=open;endSize=12;dashed=1;html=1;rounded=0;exitX=0.5;exitY=1;exitDx=0;exitDy=0;exitPerimeter=0;entryX=0;entryY=0;entryDx=310;entryDy=14;entryPerimeter=0;" edge="1" parent="1" source="da8Bszw_18QyjZAj_Vt4-2" target="da8Bszw_18QyjZAj_Vt4-4">
          <mxGeometry width="160" relative="1" as="geometry">
            <mxPoint x="165" y="150" as="sourcePoint" />
            <mxPoint x="410" y="184" as="targetPoint" />
          </mxGeometry>
        </mxCell>
        <mxCell id="da8Bszw_18QyjZAj_Vt4-7" value="Use" style="endArrow=open;endSize=12;dashed=1;html=1;rounded=0;exitX=0.5;exitY=1;exitDx=0;exitDy=0;exitPerimeter=0;entryX=0;entryY=0;entryDx=310;entryDy=14;entryPerimeter=0;" edge="1" parent="1" source="da8Bszw_18QyjZAj_Vt4-3" target="da8Bszw_18QyjZAj_Vt4-4">
          <mxGeometry width="160" relative="1" as="geometry">
            <mxPoint x="315" y="150" as="sourcePoint" />
            <mxPoint x="410" y="184" as="targetPoint" />
          </mxGeometry>
        </mxCell>
        <mxCell id="da8Bszw_18QyjZAj_Vt4-8" value="op" style="shape=folder;fontStyle=1;spacingTop=10;tabWidth=40;tabHeight=14;tabPosition=left;html=1;" vertex="1" parent="1">
          <mxGeometry x="540" y="80" width="70" height="60" as="geometry" />
        </mxCell>
        <mxCell id="da8Bszw_18QyjZAj_Vt4-11" value="documental" style="shape=folder;fontStyle=1;spacingTop=10;tabWidth=40;tabHeight=14;tabPosition=left;html=1;" vertex="1" parent="1">
          <mxGeometry x="630" y="80" width="130" height="60" as="geometry" />
        </mxCell>
        <mxCell id="da8Bszw_18QyjZAj_Vt4-12" value="Use" style="endArrow=open;endSize=12;dashed=1;html=1;rounded=0;exitX=0.5;exitY=1;exitDx=0;exitDy=0;exitPerimeter=0;entryX=0.461;entryY=0.194;entryDx=0;entryDy=0;entryPerimeter=0;" edge="1" parent="1" source="da8Bszw_18QyjZAj_Vt4-8" target="da8Bszw_18QyjZAj_Vt4-4">
          <mxGeometry width="160" relative="1" as="geometry">
            <mxPoint x="465" y="150" as="sourcePoint" />
            <mxPoint x="410" y="184" as="targetPoint" />
          </mxGeometry>
        </mxCell>
        <mxCell id="da8Bszw_18QyjZAj_Vt4-13" value="Use" style="endArrow=open;endSize=12;dashed=1;html=1;rounded=0;exitX=0.5;exitY=1;exitDx=0;exitDy=0;exitPerimeter=0;entryX=0;entryY=0;entryDx=355;entryDy=14;entryPerimeter=0;" edge="1" parent="1" source="da8Bszw_18QyjZAj_Vt4-11" target="da8Bszw_18QyjZAj_Vt4-4">
          <mxGeometry width="160" relative="1" as="geometry">
            <mxPoint x="475" y="160" as="sourcePoint" />
            <mxPoint x="420" y="194" as="targetPoint" />
          </mxGeometry>
        </mxCell>
      </root>
    </mxGraphModel>
  </diagram>
</mxfile>
